# xmcd
#
# Track frame offsets: 
#        150
#        12540
#        26470
#        41473
#        56408
#        74913
#        88803
#        105518
#        121098
#        132748
#        144534
#        156912
#        171330
#        188870
#        203025
#        217707
#        230527
#        244094
#        255489
#        277614
#
# Disc length: 3898 seconds
#
# Revision: 1
# Processed by: cddbd v1.5.2PL0 Copyright (c) Steve Scherf et al.
# Submitted via: ExactAudioCopy v0.99pb4
#
DISCID=1b0f3814
DTITLE=O'Sullivan Gilbert - Gilbert O'Sullivan
DYEAR=1900
DGENRE=Other
TTITLE0=Get Down
TTITLE1=No Matter How I Try
TTITLE2=Matrimony
TTITLE3=A Woman's Place
TTITLE4=Can't Think Straight - With Peggy Lee
TTITLE5=Clair
TTITLE6=Alone Again (Naturally)
TTITLE7=Nothing Rhymed
TTITLE8=Too Much Attention
TTITLE9=What's In A Kiss (Original Version)
TTITLE10=You Got Me Going
TTITLE11=Happiness Is Me And You
TTITLE12=Why, Oh Why, Oh Why
TTITLE13=Underneath The Blanket Go
TTITLE14=I Don't Love You But I Think I Like You
TTITLE15=Oooh-Wakka-Doo-Wakka-Day
TTITLE16=Out Of The Question
TTITLE17=Who Was It 
TTITLE18=At The Very Mention Of Your Name
TTITLE19=Ooh Baby
EXTD=
EXTT0=
EXTT1=
EXTT2=
EXTT3=
EXTT4=
EXTT5=
EXTT6=
EXTT7=
EXTT8=
EXTT9=
EXTT10=
EXTT11=
EXTT12=
EXTT13=
EXTT14=
EXTT15=
EXTT16=
EXTT17=
EXTT18=
EXTT19=
PLAYORDER=
